<svg xmlns="http://www.w3.org/2000/svg" viewBox="0 0 1209.75 151.81"><defs><style>.cls-1{fill:#fff;}</style></defs><title>アセット 38</title><g id="レイヤー_2" data-name="レイヤー 2"><g id="レイヤー_1-2" data-name="レイヤー 1"><polygon class="cls-1" points="147.05 103.23 141.28 93.11 130.89 74.89 110.7 74.78 64.87 74.55 69.57 66.5 87.99 34.98 106.08 66.69 126.27 66.79 88.17 0 49.38 66.39 44.67 74.44 34.09 92.55 54.29 92.65 121.09 93 126.86 103.12 144.56 134.16 30.38 133.56 48.41 102.71 28.22 102.61 0 150.89 174.76 151.81 147.05 103.23"/><path class="cls-1" d="M231.81,98.05l2.05,1a6.4,6.4,0,0,0,.82,3.27q1.42,2.44,5.62,4.79a57,57,0,0,0,9.61,4.19,84.78,84.78,0,0,0,11.34,3,57.7,57.7,0,0,0,10.64,1.12q3.47,0,9-.51a53.62,53.62,0,0,0,10.84-2.14,30.69,30.69,0,0,0,9.2-4.49,8.94,8.94,0,0,0,3.89-7.56,7.64,7.64,0,0,0-3.58-6.94,26.35,26.35,0,0,0-9.41-3.26,101,101,0,0,0-13.29-1.33q-7.47-.3-15.23-.92a139.87,139.87,0,0,1-15.23-2,42,42,0,0,1-13.29-4.8,26.27,26.27,0,0,1-9.41-9.18q-3.59-5.82-3.58-15.21a28.24,28.24,0,0,1,3-12.45,30.21,30.21,0,0,1,9.1-10.82A50.1,50.1,0,0,1,249.4,26.1a73.49,73.49,0,0,1,22.08-3,94.81,94.81,0,0,1,18.81,1.63,138,138,0,0,1,13.8,3.47c3.88,1.22,7.16,2.38,9.81,3.47a18.34,18.34,0,0,0,6.65,1.63,5.68,5.68,0,0,0,4.09-1.22l2.45,1.63L313,59.27l-2-.82a11.39,11.39,0,0,0-1.64-4.7A17.39,17.39,0,0,0,303.89,49a47.28,47.28,0,0,0-8.9-4.19,73.4,73.4,0,0,0-11-3,64.35,64.35,0,0,0-11.86-1.12,62.69,62.69,0,0,0-9.3.72,43.5,43.5,0,0,0-8.69,2.14,19,19,0,0,0-6.44,3.78,7.55,7.55,0,0,0-2.56,5.81,8.3,8.3,0,0,0,3.58,7.35,26.16,26.16,0,0,0,9.41,3.68,89,89,0,0,0,13.29,1.63q7.46.4,15.23,1A124.89,124.89,0,0,1,301.84,69a44.19,44.19,0,0,1,13.29,4.9,26.83,26.83,0,0,1,9.41,9.08q3.57,5.73,3.58,14.91,0,10.61-5.63,17.35a39.63,39.63,0,0,1-14,10.61,63.34,63.34,0,0,1-18.1,5.21,134.85,134.85,0,0,1-18.09,1.32A121,121,0,0,1,252.77,131a73,73,0,0,1-13.09-3.27,88.41,88.41,0,0,1-8.28-3.47,12.31,12.31,0,0,0-5.31-1.53,3.39,3.39,0,0,0-2.66,1.63l-2.86-1.63Z"/><path class="cls-1" d="M455.08,31.71q0-3.67-4.49-3.68V24.36h31.48V28a3.94,3.94,0,0,0-2.55.92,3.36,3.36,0,0,0-1.13,2.76v92.67a3.35,3.35,0,0,0,1.13,2.76,3.94,3.94,0,0,0,2.55.92v3.67H450.59v-3.67q4.49,0,4.49-3.68V86H389.25v38.37a3.35,3.35,0,0,0,1.12,2.76,3.94,3.94,0,0,0,2.56.92v3.67H362.05v-3.67q3.88,0,3.89-3.68V31.71q0-3.67-3.89-3.68V24.36h30.88V28a3.94,3.94,0,0,0-2.56.92,3.36,3.36,0,0,0-1.12,2.76v34.7h65.83Z"/><path class="cls-1" d="M518.67,128.06q5.33,0,5.32-3.68V31.71Q524,28,518.67,28V24.36h33.94V28q-5.31,0-5.31,3.68v92.67q0,3.68,5.31,3.68v3.67H518.67Z"/><path class="cls-1" d="M643.8,124.38q0,3.68,4.5,3.68v3.67H616.81v-3.67a3.94,3.94,0,0,0,2.56-.92,3.35,3.35,0,0,0,1.12-2.76V43.14H586.76a7,7,0,0,0-3.58,1c-1.16.68-1.74,2-1.74,3.88h-3.68V19.46h3.68c0,1.91.58,3.2,1.74,3.88a7,7,0,0,0,3.58,1h90.78a7,7,0,0,0,3.58-1c1.15-.68,1.74-2,1.74-3.88h3.68V48h-3.68c0-1.9-.59-3.2-1.74-3.88a7,7,0,0,0-3.58-1H643.8Z"/><path class="cls-1" d="M825.77,117a5.62,5.62,0,0,1-1.12-.1,6.51,6.51,0,0,0-1.13-.1c-.81,0-2.76.82-5.82,2.45s-7,3.47-11.66,5.51a103.38,103.38,0,0,1-16,5.31,77.28,77.28,0,0,1-18.81,2.24,92.65,92.65,0,0,1-24.74-3.26,61.86,61.86,0,0,1-21-10.11,49.7,49.7,0,0,1-14.41-17q-5.33-10.2-5.32-23.88,0-13.48,5.32-23.78A50.41,50.41,0,0,1,725.48,37a63.55,63.55,0,0,1,21-10.41,87.41,87.41,0,0,1,24.74-3.47,100.45,100.45,0,0,1,18.92,1.63q8.48,1.64,14.82,3.47a81.6,81.6,0,0,1,10,3.47,18,18,0,0,0,4.5,1.63,2.08,2.08,0,0,0,1.73-1c.48-.68.85-1.22,1.13-1.63l3.07,2.45-16,24.7-2-1.43a7.29,7.29,0,0,0-.1-1.23c-.07-.4-.17-.88-.31-1.43q-.4-2.23-4.09-4.59A42,42,0,0,0,793.78,45a92.52,92.52,0,0,0-11.45-3.06,56.16,56.16,0,0,0-11.15-1.23,55.21,55.21,0,0,0-16.46,2.45A41.14,41.14,0,0,0,741,50.28a35.17,35.17,0,0,0-9.3,11.54,33.93,33.93,0,0,0-3.47,15.61,34,34,0,0,0,3.47,15.62,35,35,0,0,0,9.3,11.53,41.16,41.16,0,0,0,13.7,7.15,55.21,55.21,0,0,0,16.46,2.45,65.55,65.55,0,0,0,13.7-1.53A83.12,83.12,0,0,0,798,108.77a43.6,43.6,0,0,0,9.91-5.31q4-3,4-5.61a3.78,3.78,0,0,0-.82-2.45l2.86-1.64,13.5,21.64Z"/><path class="cls-1" d="M921.87,23.14a82.45,82.45,0,0,1,22.9,3.36A71.34,71.34,0,0,1,966,36.61a54.69,54.69,0,0,1,15.75,17q6.13,10.32,6.13,24.4t-6.13,24.39a54.69,54.69,0,0,1-15.75,17,65.9,65.9,0,0,1-21.26,9.8,87.22,87.22,0,0,1-45.8,0,66,66,0,0,1-21.27-9.8,54.78,54.78,0,0,1-15.74-17q-6.13-10.31-6.13-24.39T862,53.65a54.78,54.78,0,0,1,15.74-17A71.4,71.4,0,0,1,899,26.5,82.4,82.4,0,0,1,921.87,23.14Zm0,18.78a51.52,51.52,0,0,0-15.54,2.44,47.8,47.8,0,0,0-14,7A36.62,36.62,0,0,0,882.2,62.74a30.07,30.07,0,0,0-3.88,15.31,30.12,30.12,0,0,0,3.88,15.31,36.59,36.59,0,0,0,10.12,11.32,47.55,47.55,0,0,0,14,7,50.51,50.51,0,0,0,31.08,0,47.5,47.5,0,0,0,14-7,36.59,36.59,0,0,0,10.12-11.32,30.13,30.13,0,0,0,3.89-15.31,30.07,30.07,0,0,0-3.89-15.31,36.62,36.62,0,0,0-10.12-11.33,47.74,47.74,0,0,0-14-7A51.52,51.52,0,0,0,921.87,41.92Z"/><path class="cls-1" d="M1018.38,128.06q5.31,0,5.31-3.68V31.71q0-3.67-5.31-3.68V24.36h33.94V28q-5.33,0-5.32,3.68v92.67q0,3.68,5.32,3.68v3.67h-33.94Z"/><path class="cls-1" d="M1088.1,128.06c2.58,0,3.88-1.23,3.88-3.68V31.71c0-2.45-1.3-3.68-3.88-3.68V24.36h35V28c-1.09,0-1.64.69-1.64,2q0,1.64,4.09,5.71l58.68,60.83V31.71q0-3.67-5.31-3.68V24.36h30.87V28q-3.88,0-3.88,3.68v92.67q0,3.68,3.88,3.68v3.67h-33.12v-3.67c1.77,0,2.66-.62,2.66-1.84,0-1-1.1-2.52-3.27-4.69l-62.37-64.92v67.77q0,3.68,4.71,3.68v3.67H1088.1Z"/></g></g></svg>