<svg xmlns="http://www.w3.org/2000/svg" viewBox="0 0 387.62 334.07"><defs><style>.cls-1{fill:#492705;}</style></defs><title>アセット 29</title><g id="レイヤー_2" data-name="レイヤー 2"><g id="レイヤー_1-2" data-name="レイヤー 1"><polygon class="cls-1" points="294.48 174.15 284.74 157.07 267.21 126.34 233.14 126.16 155.83 125.76 163.77 112.18 194.84 59.01 225.35 112.5 259.42 112.68 195.15 0 129.7 112 121.77 125.58 103.92 156.13 137.98 156.3 250.67 156.89 260.41 173.97 290.27 226.32 97.66 225.31 128.07 173.27 94 173.09 46.4 254.55 341.22 256.1 294.48 174.15"/><path class="cls-1" d="M4.41,320.63l.8.4a2.46,2.46,0,0,0,.32,1.28,5.68,5.68,0,0,0,2.2,1.88,22,22,0,0,0,3.77,1.64A32.06,32.06,0,0,0,15.94,327a22.1,22.1,0,0,0,4.17.44c.91,0,2.08-.06,3.53-.2a20.54,20.54,0,0,0,4.24-.84,11.79,11.79,0,0,0,3.61-1.76,3.5,3.5,0,0,0,1.52-3,3,3,0,0,0-1.4-2.72,10.54,10.54,0,0,0-3.69-1.28,41.1,41.1,0,0,0-5.21-.52q-2.92-.12-6-.36a52.62,52.62,0,0,1-6-.8,16.45,16.45,0,0,1-5.21-1.88,10.43,10.43,0,0,1-3.69-3.6,11.28,11.28,0,0,1-1.4-6,11.12,11.12,0,0,1,1.16-4.87,11.9,11.9,0,0,1,3.57-4.24,19.45,19.45,0,0,1,6.09-3A28.66,28.66,0,0,1,20,291.28a36.88,36.88,0,0,1,7.37.64,53,53,0,0,1,5.41,1.36c1.52.48,2.8.93,3.85,1.36a7.27,7.27,0,0,0,2.6.64,2.2,2.2,0,0,0,1.6-.48l1,.64-5.53,10-.8-.32a4.26,4.26,0,0,0-.64-1.83,6.79,6.79,0,0,0-2.12-1.88,18,18,0,0,0-3.49-1.64,27.75,27.75,0,0,0-4.32-1.16,24.35,24.35,0,0,0-8.29-.16,16.21,16.21,0,0,0-3.41.84,7.31,7.31,0,0,0-2.52,1.48,3,3,0,0,0-1,2.27A3.25,3.25,0,0,0,11,305.91a10.18,10.18,0,0,0,3.68,1.44,33.86,33.86,0,0,0,5.21.64q2.93.17,6,.4a48.74,48.74,0,0,1,6,.84,17.35,17.35,0,0,1,5.21,1.92,10.46,10.46,0,0,1,3.68,3.56,10.84,10.84,0,0,1,1.4,5.84,10.24,10.24,0,0,1-2.2,6.8,15.51,15.51,0,0,1-5.49,4.16,25,25,0,0,1-7.09,2,52.06,52.06,0,0,1-7.09.52,46.82,46.82,0,0,1-7.65-.52,28.52,28.52,0,0,1-5.13-1.28c-1.36-.51-2.44-1-3.24-1.36a4.83,4.83,0,0,0-2.09-.6,1.33,1.33,0,0,0-1,.64L0,330.31Z"/><path class="cls-1" d="M91.9,294.64q0-1.44-1.77-1.44v-1.44h12.34v1.44a1.54,1.54,0,0,0-1,.36,1.32,1.32,0,0,0-.44,1.08V331a1.32,1.32,0,0,0,.44,1.08,1.54,1.54,0,0,0,1,.36v1.44H90.13v-1.44q1.77,0,1.77-1.44v-15H66.1v15a1.32,1.32,0,0,0,.44,1.08,1.54,1.54,0,0,0,1,.36v1.44H55.44v-1.44Q57,332.39,57,331V294.64q0-1.44-1.53-1.44v-1.44h12.1v1.44a1.54,1.54,0,0,0-1,.36,1.32,1.32,0,0,0-.44,1.08v13.59H91.9Z"/><path class="cls-1" d="M116.82,332.39c1.38,0,2.08-.48,2.08-1.44V294.64c0-1-.7-1.44-2.08-1.44v-1.44h13.3v1.44c-1.39,0-2.09.48-2.09,1.44V331c0,1,.7,1.44,2.09,1.44v1.44h-13.3Z"/><path class="cls-1" d="M165.85,331c0,1,.59,1.44,1.76,1.44v1.44H155.27v-1.44a1.52,1.52,0,0,0,1-.36,1.29,1.29,0,0,0,.44-1.08V299.12H143.5a2.72,2.72,0,0,0-1.41.4,1.61,1.61,0,0,0-.68,1.52H140v-11.2h1.44a1.63,1.63,0,0,0,.68,1.52,2.82,2.82,0,0,0,1.41.4h35.57a2.78,2.78,0,0,0,1.4-.4,1.63,1.63,0,0,0,.68-1.52h1.44V301h-1.44a1.61,1.61,0,0,0-.68-1.52,2.69,2.69,0,0,0-1.4-.4H165.85Z"/><path class="cls-1" d="M237.16,328.07a2.09,2.09,0,0,1-.45,0,2.87,2.87,0,0,0-.44,0,7.42,7.42,0,0,0-2.28,1q-1.8,1-4.57,2.16a40.67,40.67,0,0,1-6.29,2.08,30.12,30.12,0,0,1-7.37.88,36.48,36.48,0,0,1-9.69-1.28,24,24,0,0,1-8.21-4,19.42,19.42,0,0,1-5.65-6.68,21.89,21.89,0,0,1,0-18.67,19.7,19.7,0,0,1,5.65-6.76,24.59,24.59,0,0,1,8.21-4.08,34.22,34.22,0,0,1,9.69-1.36,39,39,0,0,1,7.41.64c2.22.42,4.16.88,5.81,1.36a31.29,31.29,0,0,1,3.93,1.36,7.5,7.5,0,0,0,1.76.64.83.83,0,0,0,.68-.4c.19-.27.34-.48.44-.64l1.2,1-6.24,9.67-.81-.56a2.59,2.59,0,0,0,0-.48,3.7,3.7,0,0,0-.12-.55c-.1-.59-.64-1.19-1.6-1.8a16.22,16.22,0,0,0-3.56-1.64,37.27,37.27,0,0,0-4.49-1.2,22.08,22.08,0,0,0-4.37-.48,21.61,21.61,0,0,0-6.45,1,16,16,0,0,0-5.36,2.8,13.61,13.61,0,0,0-3.65,4.51,14.45,14.45,0,0,0,0,12.24,13.54,13.54,0,0,0,3.65,4.52,16,16,0,0,0,5.36,2.8,21.61,21.61,0,0,0,6.45,1,25.68,25.68,0,0,0,5.37-.6,31.63,31.63,0,0,0,5.13-1.52,16.54,16.54,0,0,0,3.88-2.08c1.05-.77,1.57-1.5,1.57-2.2a1.52,1.52,0,0,0-.32-1l1.12-.64,5.29,8.48Z"/><path class="cls-1" d="M274.81,291.28a32.16,32.16,0,0,1,9,1.32,27.87,27.87,0,0,1,8.34,4,21.46,21.46,0,0,1,6.17,6.68,20.22,20.22,0,0,1,0,19.11,21.46,21.46,0,0,1-6.17,6.68,25.8,25.8,0,0,1-8.34,3.84,34.13,34.13,0,0,1-17.94,0A25.8,25.8,0,0,1,257.5,329a21.31,21.31,0,0,1-6.16-6.68,20.15,20.15,0,0,1,0-19.11,21.31,21.31,0,0,1,6.16-6.68,27.87,27.87,0,0,1,8.34-4A32.16,32.16,0,0,1,274.81,291.28Zm0,7.36a20.16,20.16,0,0,0-6.09,1,18.63,18.63,0,0,0-5.49,2.76,14.24,14.24,0,0,0-4,4.43,12.53,12.53,0,0,0,0,12,14.28,14.28,0,0,0,4,4.44,18.63,18.63,0,0,0,5.49,2.76,19.8,19.8,0,0,0,12.18,0,18.63,18.63,0,0,0,5.49-2.76,14.28,14.28,0,0,0,4-4.44,12.53,12.53,0,0,0,0-12,14.24,14.24,0,0,0-4-4.43,18.63,18.63,0,0,0-5.49-2.76A20.16,20.16,0,0,0,274.81,298.64Z"/><path class="cls-1" d="M312.63,332.39c1.39,0,2.08-.48,2.08-1.44V294.64c0-1-.69-1.44-2.08-1.44v-1.44h13.3v1.44c-1.39,0-2.09.48-2.09,1.44V331c0,1,.7,1.44,2.09,1.44v1.44h-13.3Z"/><path class="cls-1" d="M340,332.39c1,0,1.52-.48,1.52-1.44V294.64c0-1-.51-1.44-1.52-1.44v-1.44h13.7v1.44c-.43,0-.64.26-.64.8s.53,1.17,1.6,2.24l23,23.83V294.64c0-1-.69-1.44-2.08-1.44v-1.44h12.1v1.44c-1,0-1.52.48-1.52,1.44V331c0,1,.5,1.44,1.52,1.44v1.44h-13v-1.44c.69,0,1-.24,1-.72s-.43-1-1.28-1.84L350,304.39V331c0,1,.62,1.44,1.85,1.44v1.44H340Z"/></g></g></svg>